<svg xmlns="http://www.w3.org/2000/svg" version="1.1" xmlns:xlink="http://www.w3.org/1999/xlink" xmlns:svgjs="http://svgjs.dev/svgjs" width="1440" height="560" preserveAspectRatio="none" viewBox="0 0 1440 560"><g mask="url(&quot;#SvgjsMask1003&quot;)" fill="none"><rect width="1440" height="560" x="0" y="0" fill="#0e2a47"></rect><path d="M1447.9 296.07a20.85 20.85 0 1 0-38.98-14.82z" fill="#d3b714"></path><path d="M1173.41 209.85a2.73 2.73 0 1 0-4.76 2.68z" fill="#037b0b"></path><path d="M1077.53 159.13 a16.86 16.86 0 1 0 33.72 0 a16.86 16.86 0 1 0 -33.72 0z" stroke="#d3b714"></path><path d="M355.83 557.76 a48.04 48.04 0 1 0 96.08 0 a48.04 48.04 0 1 0 -96.08 0z" fill="#037b0b"></path><path d="M562.76 50.71a9.05 9.05 0 1 0 9.41 15.46z" fill="#037b0b"></path><path d="M1185.61 413.07a31.11 31.11 0 1 0 61.74 7.66z" stroke="#d3b714"></path><path d="M786.44 230.14L810.41 230.14L810.41 240.52L786.44 240.52z" stroke="#037b0b"></path><path d="M890.05 385.26 a51 51 0 1 0 102 0 a51 51 0 1 0 -102 0z" fill="#e73635"></path><path d="M1352.61 125.63 a52.43 52.43 0 1 0 104.86 0 a52.43 52.43 0 1 0 -104.86 0z" stroke="#037b0b"></path><path d="M273.37 81.69L319.07 81.69L319.07 127.39L273.37 127.39z" stroke="#d3b714"></path><path d="M797.77 421.53 a43.79 43.79 0 1 0 87.58 0 a43.79 43.79 0 1 0 -87.58 0z" fill="#037b0b"></path><path d="M731.77 506.28L770.08 506.28L770.08 558.98L731.77 558.98z" fill="#037b0b"></path><path d="M255.21 208.74a54.14 54.14 0 1 0-102.63 34.54z" stroke="#037b0b"></path><path d="M174.56 330.83 a0.49 0.49 0 1 0 0.98 0 a0.49 0.49 0 1 0 -0.98 0z" fill="#d3b714"></path><path d="M999.97 498.65L1053.57 498.65L1053.57 519.23L999.97 519.23z" fill="#037b0b"></path><path d="M207.76 225.15a1.37 1.37 0 1 0 2.44-1.25z" fill="#e73635"></path><path d="M1072.38 543.56a16.48 16.48 0 1 0-26.33-19.82z" stroke="#037b0b"></path><path d="M198.11 422.39L205.21 422.39L205.21 429.49L198.11 429.49z" stroke="#e73635"></path><path d="M1003.12 397.36L1019.5 397.36L1019.5 413.74L1003.12 413.74z" fill="#e73635"></path><path d="M455.79 331.41 a45.37 45.37 0 1 0 90.74 0 a45.37 45.37 0 1 0 -90.74 0z" stroke="#d3b714"></path><path d="M747.12 256.39L762.52 256.39L762.52 297.42L747.12 297.42z" fill="#d3b714"></path><path d="M1331.23 226.39a47.48 47.48 0 1 0-75.1-58.12z" stroke="#d3b714"></path><path d="M1376.85 168.16L1415.18 168.16L1415.18 206.49L1376.85 206.49z" stroke="#037b0b"></path><path d="M51.46 437.02 a6.82 6.82 0 1 0 13.64 0 a6.82 6.82 0 1 0 -13.64 0z" stroke="#d3b714"></path><path d="M1351.75 400.28a29.37 29.37 0 1 0-56.32-16.68z" stroke="#d3b714"></path><path d="M557.66 351.6 a55.21 55.21 0 1 0 110.42 0 a55.21 55.21 0 1 0 -110.42 0z" stroke="#e73635"></path><path d="M1375.99 29.63 a1.78 1.78 0 1 0 3.56 0 a1.78 1.78 0 1 0 -3.56 0z" stroke="#037b0b"></path><path d="M689.23 18.9 a16.15 16.15 0 1 0 32.3 0 a16.15 16.15 0 1 0 -32.3 0z" fill="#e73635"></path><path d="M895.39 192.68 a24.7 24.7 0 1 0 49.4 0 a24.7 24.7 0 1 0 -49.4 0z" stroke="#d3b714"></path><path d="M108.16 403.41L155.61 403.41L155.61 450.86L108.16 450.86z" fill="#e73635"></path><path d="M48.23 466.33 a49.66 49.66 0 1 0 99.32 0 a49.66 49.66 0 1 0 -99.32 0z" stroke="#037b0b"></path><path d="M121.55 551.98L136.14 551.98L136.14 566.57L121.55 566.57z" fill="#d3b714"></path><path d="M839.69 348.35 a4.63 4.63 0 1 0 9.26 0 a4.63 4.63 0 1 0 -9.26 0z" stroke="#037b0b"></path></g><defs><mask id="SvgjsMask1003"><rect width="1440" height="560" fill="#ffffff"></rect></mask></defs></svg>